<svg xmlns="http://www.w3.org/2000/svg" width="635.4575805664062" height="233.84571838378906" viewBox="-340.6552734375 25.156452178955078 635.4575805664062 233.84571838378906"><title>Neo4j Graph Visualization</title><desc>Created using Neo4j (http://www.neo4j.com/)</desc><g class="layer relationships"><g class="relationship" transform="translate(-311.65527188520997 107.10575757536529) rotate(359.2836734315749)"><path class="outline" fill="#A5ABB6" stroke="none" d="M 25 0.5 L 249.8021381981481 0.5 L 249.8021381981481 -0.5 L 25 -0.5 Z M 320.7005756981481 0.5 L 545.5027138962962 0.5 L 545.5027138962962 3.5 L 552.5027138962962 0 L 545.5027138962962 -3.5 L 545.5027138962962 -0.5 L 320.7005756981481 -0.5 Z"/><text text-anchor="middle" pointer-events="none" font-size="8px" fill="#000000" x="285.2513569481481" y="3" font-family="sans-serif">BUYING_FRIEND</text></g><g class="relationship" transform="translate(-311.65527188520997 107.10575757536529) rotate(375.2177515665814)"><path class="outline" fill="#A5ABB6" stroke="none" d="M 17.324116139070416,-18.03122292025696 L 18.031222920256962,-17.324116139070412 A 181.97191020452695 181.97191020452695 0 0 1 112.32647161435482,-67.34555560217765 L 112.13755057176999,-68.32754788303765 A 182.97191020452695 182.97191020452695 0 0 0 17.324116139070416,-18.03122292025696 Z M 175.32008915358597,-69.37100494472165 L 175.16369741831767,-68.38330983734298 A 181.97191020452695 181.97191020452695 0 0 1 271.0592768142791,-21.50286418506752 L 269.0091612432028,-19.31265274659163 L 276.51145609923555,-17.084296425635536 L 273.7927642423808,-24.42314610303537 L 271.74264867130455,-22.232934664559483 A 182.97191020452695 182.97191020452695 0 0 0 175.32008915358597,-69.37100494472165"/><text text-anchor="middle" pointer-events="none" font-size="8px" fill="#000000" x="143.69168929129" y="-68.09757569272003" font-family="sans-serif">TRANSACTION</text></g><g class="relationship" transform="translate(-311.65527188520997 107.10575757536529) rotate(375.2177515665814)"><path class="outline" fill="#A5ABB6" stroke="none" d="M 24.018736134675446,-6.953439040707552 L 24.277555179777966,-5.987513214418485 A 473.0225296329143 473.0225296329143 0 0 1 112.25862545450607,-20.849488518578994 L 112.18580404115062,-21.84683351493527 A 474.0225296329143 474.0225296329143 0 0 0 24.018736134675446,-6.953439040707552 Z M 175.54022343687768,-22.227503200526996 L 175.47939209021604,-21.229355141738438 A 473.0225296329143 473.0225296329143 0 0 1 263.63270193524096,-7.425696206689774 L 262.891122623482,-4.518797494252231 L 270.5390621495551,-6.179827597991689 L 264.62147435091964,-11.301561156606498 L 263.87989503916066,-8.394662444168954 A 474.0225296329143 474.0225296329143 0 0 0 175.54022343687768,-22.227503200526996"/><text text-anchor="middle" pointer-events="none" font-size="8px" fill="#000000" x="143.85965104595758" y="-19.596817508344316" font-family="sans-serif">TRANSACTION</text></g><g class="relationship" transform="translate(-311.65527188520997 107.10575757536529) rotate(375.2177515665814)"><path class="outline" fill="#A5ABB6" stroke="none" d="M 24.018736134675446,6.953439040707552 L 24.277555179777966,5.987513214418485 A 473.0225296329143 473.0225296329143 0 0 0 112.25862545450599,20.849488518578994 L 112.18580404115053,21.84683351493527 A 474.0225296329143 474.0225296329143 0 0 1 24.018736134675446,6.953439040707552 Z M 175.54022343687774,22.227503200526996 L 175.4793920902161,21.229355141738438 A 473.0225296329143 473.0225296329143 0 0 0 263.63270193524096,7.425696206689774 L 262.891122623482,4.518797494252231 L 270.5390621495551,6.179827597991689 L 264.62147435091964,11.301561156606498 L 263.87989503916066,8.394662444168954 A 474.0225296329143 474.0225296329143 0 0 1 175.54022343687774,22.227503200526996"/><text text-anchor="middle" pointer-events="none" font-size="8px" fill="#000000" x="143.85965104595755" y="25.596817508344316" font-family="sans-serif">TRANSACTION</text></g><g class="relationship" transform="translate(-311.65527188520997 107.10575757536529) rotate(375.2177515665814)"><path class="outline" fill="#A5ABB6" stroke="none" d="M 17.324116139070416,18.03122292025696 L 18.031222920256962,17.324116139070412 A 181.97191020452695 181.97191020452695 0 0 0 112.3264716143548,67.34555560217765 L 112.13755057176996,68.32754788303765 A 182.97191020452695 182.97191020452695 0 0 1 17.324116139070416,18.03122292025696 Z M 175.32008915358588,69.37100494472168 L 175.1636974183176,68.383309837343 A 181.97191020452695 181.97191020452695 0 0 0 271.0592768142791,21.50286418506752 L 269.0091612432028,19.31265274659163 L 276.51145609923555,17.084296425635536 L 273.7927642423808,24.42314610303537 L 271.74264867130455,22.232934664559483 A 182.97191020452695 182.97191020452695 0 0 1 175.32008915358588,69.37100494472168"/><text text-anchor="middle" pointer-events="none" font-size="8px" fill="#000000" x="143.69168929128995" y="74.09757569272003" font-family="sans-serif">TRANSACTION</text></g><g class="relationship" transform="translate(265.8023089041841 99.88585823758442) rotate(523.8976647569027)"><path class="outline" fill="#A5ABB6" stroke="none" d="M 17.324116139070416,-18.03122292025696 L 18.031222920256962,-17.324116139070412 A 189.2395598431601 189.2395598431601 0 0 1 117.42999346905319,-69.5956635592841 L 117.24814034323963,-70.57898926353059 A 190.2395598431601 190.2395598431601 0 0 0 17.324116139070416,-18.03122292025696 Z M 180.4485054433397,-71.58828214416107 L 180.29814393854645,-70.59965106136207 A 189.2395598431601 189.2395598431601 0 0 1 281.3153271255788,-21.528692671765594 L 279.2628250756041,-19.340717503979256 L 286.762686192076,-17.104183749789023 L 284.051996525545,-24.445992895480714 L 281.9994944755703,-22.258017727694376 A 190.2395598431601 190.2395598431601 0 0 0 180.4485054433397,-71.58828214416107"/><text text-anchor="middle" pointer-events="none" font-size="8px" fill="#000000" x="148.8140953821651" y="-70.22690971385279" transform="rotate(180 148.8140953821651 -73.22690971385279)" font-family="sans-serif">TRANSACTION</text></g><g class="relationship" transform="translate(265.8023089041841 99.88585823758442) rotate(523.8976647569027)"><path class="outline" fill="#A5ABB6" stroke="none" d="M 24.018736134675446,-6.953439040707552 L 24.277555179777966,-5.987513214418485 A 492.8781176972724 492.8781176972724 0 0 1 117.37183016922927,-21.574962691325368 L 117.30189002064662,-22.572513880796976 A 493.8781176972724 493.8781176972724 0 0 0 24.018736134675446,-6.953439040707552 Z M 180.65741958958384,-22.940695559604364 L 180.59907802796573,-21.9423988791591 A 492.8781176972724 492.8781176972724 0 0 1 273.8682276792627,-7.437974025664859 L 273.1255018956841,-4.53136803062398 L 280.77409596495454,-6.18938152982163 L 274.85852872403416,-11.313448685719363 L 274.1158029404556,-8.406842690678484 A 493.8781176972724 493.8781176972724 0 0 0 180.65741958958384,-22.940695559604364"/><text text-anchor="middle" pointer-events="none" font-size="8px" fill="#000000" x="148.9766503785154" y="-20.2735968717397" transform="rotate(180 148.9766503785154 -23.2735968717397)" font-family="sans-serif">TRANSACTION</text></g><g class="relationship" transform="translate(265.8023089041841 99.88585823758442) rotate(523.8976647569027)"><path class="outline" fill="#A5ABB6" stroke="none" d="M 24.018736134675446,6.953439040707552 L 24.277555179777966,5.987513214418485 A 492.8781176972724 492.8781176972724 0 0 0 117.37183016922933,21.574962691325368 L 117.30189002064668,22.572513880796976 A 493.8781176972724 493.8781176972724 0 0 1 24.018736134675446,6.953439040707552 Z M 180.65741958958392,22.940695559604364 L 180.59907802796582,21.9423988791591 A 492.8781176972724 492.8781176972724 0 0 0 273.8682276792627,7.437974025664859 L 273.1255018956841,4.53136803062398 L 280.77409596495454,6.18938152982163 L 274.85852872403416,11.313448685719363 L 274.1158029404556,8.406842690678484 A 493.8781176972724 493.8781176972724 0 0 1 180.65741958958392,22.940695559604364"/><text text-anchor="middle" pointer-events="none" font-size="8px" fill="#000000" x="148.97665037851547" y="26.2735968717397" transform="rotate(180 148.97665037851547 23.2735968717397)" font-family="sans-serif">TRANSACTION</text></g><g class="relationship" transform="translate(265.8023089041841 99.88585823758442) rotate(523.8976647569027)"><path class="outline" fill="#A5ABB6" stroke="none" d="M 17.324116139070416,18.03122292025696 L 18.031222920256962,17.324116139070412 A 189.2395598431601 189.2395598431601 0 0 0 117.42999346905316,69.5956635592841 L 117.24814034323961,70.57898926353059 A 190.2395598431601 190.2395598431601 0 0 1 17.324116139070416,18.03122292025696 Z M 180.4485054433397,71.58828214416107 L 180.29814393854645,70.59965106136207 A 189.2395598431601 189.2395598431601 0 0 0 281.3153271255788,21.528692671765594 L 279.2628250756041,19.340717503979256 L 286.762686192076,17.104183749789023 L 284.051996525545,24.445992895480714 L 281.9994944755703,22.258017727694376 A 190.2395598431601 190.2395598431601 0 0 1 180.4485054433397,71.58828214416107"/><text text-anchor="middle" pointer-events="none" font-size="8px" fill="#000000" x="148.8140953821651" y="76.22690971385279" transform="rotate(180 148.8140953821651 73.22690971385279)" font-family="sans-serif">TRANSACTION</text></g></g><g class="layer nodes"><g class="node" transform="translate(-311.65527188520997,107.10575757536529)"><circle class="outline" cx="0" cy="0" r="25" fill="#FFC454" stroke="#d7a013" stroke-width="2px"/><text text-anchor="middle" pointer-events="none" font-family="sans-serif" dy="1.5625" font-size="25" fill="#2A2C34"/><text text-anchor="middle" pointer-events="none" x="0" y="5" font-size="10px" fill="#2A2C34" font-family="sans-serif"> 62.2625…</text></g><g class="node" transform="translate(265.8023089041841,99.88585823758442)"><circle class="outline" cx="0" cy="0" r="25" fill="#FFC454" stroke="#d7a013" stroke-width="2px"/><text text-anchor="middle" pointer-events="none" font-family="sans-serif" dy="1.5625" font-size="25" fill="#2A2C34"/><text text-anchor="middle" pointer-events="none" x="0" y="5" font-size="10px" fill="#2A2C34" font-family="sans-serif"> 46.5707…</text></g><g class="node" transform="translate(-27.22786241771225,184.47760956520906)"><circle class="outline" cx="0" cy="0" r="25" fill="#4C8EDA" stroke="#2870c2" stroke-width="2px"/><text text-anchor="middle" pointer-events="none" font-family="sans-serif" dy="1.5625" font-size="25" fill="#FFFFFF"/><text text-anchor="middle" pointer-events="none" x="0" y="5" font-size="10px" fill="#FFFFFF" font-family="sans-serif"> 64.5894…</text></g></g></svg>