<svg xmlns="http://www.w3.org/2000/svg" width="695.3050537109375" height="177.40908813476562" viewBox="-396.6602478027344 18.45767593383789 695.3050537109375 177.40908813476562"><title>Neo4j Graph Visualization</title><desc>Created using Neo4j (http://www.neo4j.com/)</desc><g class="layer relationships"><g class="relationship" transform="translate(269.64476296665737 107.62138297919881) rotate(180.2390480637764)"><path class="outline" fill="#A5ABB6" stroke="none" d="M 17.324116139070416,-18.03122292025696 L 18.031222920256962,-17.324116139070412 A 185.68190217790087 185.68190217790087 0 0 1 114.93132219883906,-68.49533648308386 L 114.74607618136734,-69.47802865920559 A 186.68190217790087 186.68190217790087 0 0 0 17.324116139070416,-18.03122292025696 Z M 177.9380065899698,-70.50376512992696 L 177.7847520368378,-69.51557838545793 A 185.68190217790087 185.68190217790087 0 0 1 276.29459530758874,-21.516267864714457 L 274.2432412651456,-19.32721633664292 L 281.7442745468295,-17.094617020359138 L 279.0297340308462,-24.435003235476508 L 276.9783799884031,-22.24595170740497 A 186.68190217790087 186.68190217790087 0 0 0 177.9380065899698,-70.50376512992696"/><text text-anchor="middle" pointer-events="none" font-size="8px" fill="#000000" x="146.306433616299" y="-69.18456334616914" transform="rotate(180 146.306433616299 -72.18456334616914)" font-family="sans-serif">TRANSACTION</text></g><g class="relationship" transform="translate(269.64476296665737 107.62138297919881) rotate(180.2390480637764)"><path class="outline" fill="#A5ABB6" stroke="none" d="M 24.018736134675446,-6.953439040707552 L 24.277555179777966,-5.987513214418485 A 483.1584161998453 483.1584161998453 0 0 1 114.86857870758811,-21.220316207439964 L 114.7972572212373,-22.217769587596024 A 484.1584161998453 484.1584161998453 0 0 0 24.018736134675446,-6.953439040707552 Z M 178.15227400763843,-22.59196094413403 L 178.09273952894443,-21.593734694305567 A 483.1584161998453 483.1584161998453 0 0 1 268.85737452214147,-7.432065816939124 L 268.11520043128075,-4.52531890348844 L 275.76347966866985,-6.18478409050592 L 269.84693997662237,-11.307728368206703 L 269.10476588576165,-8.40098145475602 A 484.1584161998453 484.1584161998453 0 0 0 178.15227400763843,-22.59196094413403"/><text text-anchor="middle" pointer-events="none" font-size="8px" fill="#000000" x="146.47159137626593" y="-19.942301283970153" transform="rotate(180 146.47159137626593 -22.942301283970153)" font-family="sans-serif">TRANSACTION</text></g><g class="relationship" transform="translate(269.64476296665737 107.62138297919881) rotate(180.2390480637764)"><path class="outline" fill="#A5ABB6" stroke="none" d="M 24.018736134675446,6.953439040707552 L 24.277555179777966,5.987513214418485 A 483.1584161998453 483.1584161998453 0 0 0 114.86857870758823,21.220316207439964 L 114.7972572212374,22.217769587596024 A 484.1584161998453 484.1584161998453 0 0 1 24.018736134675446,6.953439040707552 Z M 178.15227400763857,22.59196094413403 L 178.09273952894455,21.593734694305567 A 483.1584161998453 483.1584161998453 0 0 0 268.85737452214147,7.432065816939124 L 268.11520043128075,4.52531890348844 L 275.76347966866985,6.18478409050592 L 269.84693997662237,11.307728368206703 L 269.10476588576165,8.40098145475602 A 484.1584161998453 484.1584161998453 0 0 1 178.15227400763857,22.59196094413403"/><text text-anchor="middle" pointer-events="none" font-size="8px" fill="#000000" x="146.47159137626605" y="25.942301283970153" transform="rotate(180 146.47159137626605 22.942301283970153)" font-family="sans-serif">TRANSACTION</text></g><g class="relationship" transform="translate(269.64476296665737 107.62138297919881) rotate(180.2390480637764)"><path class="outline" fill="#A5ABB6" stroke="none" d="M 17.324116139070416,18.03122292025696 L 18.031222920256962,17.324116139070412 A 185.68190217790087 185.68190217790087 0 0 0 114.93132219883904,68.49533648308386 L 114.74607618136731,69.47802865920559 A 186.68190217790087 186.68190217790087 0 0 1 17.324116139070416,18.03122292025696 Z M 177.9380065899698,70.50376512992696 L 177.78475203683783,69.51557838545793 A 185.68190217790087 185.68190217790087 0 0 0 276.29459530758874,21.516267864714457 L 274.2432412651456,19.32721633664292 L 281.7442745468295,17.094617020359138 L 279.0297340308462,24.435003235476508 L 276.9783799884031,22.24595170740497 A 186.68190217790087 186.68190217790087 0 0 1 177.9380065899698,70.50376512992696"/><text text-anchor="middle" pointer-events="none" font-size="8px" fill="#000000" x="146.306433616299" y="75.18456334616914" transform="rotate(180 146.306433616299 72.18456334616914)" font-family="sans-serif">TRANSACTION</text></g><g class="relationship" transform="translate(-367.6602607134795 107.95146282284841) rotate(359.7313466997607)"><path class="outline" fill="#A5ABB6" stroke="none" d="M 17.324116139070416,-18.03122292025696 L 18.031222920256962,-17.324116139070412 A 212.18838416520646 212.18838416520646 0 0 1 133.5631844859097,-76.64786920109759 L 133.40055596172186,-77.63455656957885 A 213.18838416520646 213.18838416520646 0 0 0 17.324116139070416,-18.03122292025696 Z M 196.64446479469376,-78.54914756824647 L 196.51043593259564,-77.55817013958088 A 212.18838416520646 212.18838416520646 0 0 1 313.7095271114312,-21.600017494706925 L 311.6504352422144,-19.418242833078125 L 319.14351663343456,-17.159098910139313 L 316.45498293705356,-24.509050376878662 L 314.39589106783677,-22.32727571524986 A 213.18838416520646 213.18838416520646 0 0 0 196.64446479469376,-78.54914756824647"/><text text-anchor="middle" pointer-events="none" font-size="8px" fill="#000000" x="164.99563303402098" y="-76.95041869366759" font-family="sans-serif">TRANSACTION</text></g><g class="relationship" transform="translate(-367.6602607134795 107.95146282284841) rotate(359.7313466997607)"><path class="outline" fill="#A5ABB6" stroke="none" d="M 24.018736134675446,-6.953439040707552 L 24.277555179777966,-5.987513214418485 A 555.5754717190762 555.5754717190762 0 0 1 133.52859900013686,-23.84342311466594 L 133.46642478437195,-24.841488426603973 A 556.5754717190762 556.5754717190762 0 0 0 24.018736134675446,-6.953439040707552 Z M 196.8241727289187,-25.175088723221847 L 196.77251198219625,-24.176424031121314 A 555.5754717190762 555.5754717190762 0 0 1 306.20552803334016,-7.471960790603413 L 305.45962869033946,-4.566167582181455 L 313.1100287434915,-6.215827858338847 L 307.2000604906744,-11.346351735166023 L 306.4541611476737,-8.440558526744065 A 556.5754717190762 556.5754717190762 0 0 0 196.8241727289187,-25.175088723221847"/><text text-anchor="middle" pointer-events="none" font-size="8px" fill="#000000" x="165.1431805529361" y="-22.410580233721703" font-family="sans-serif">TRANSACTION</text></g><g class="relationship" transform="translate(-367.6602607134795 107.95146282284841) rotate(359.7313466997607)"><path class="outline" fill="#A5ABB6" stroke="none" d="M 24.018736134675446,6.953439040707552 L 24.277555179777966,5.987513214418485 A 555.5754717190762 555.5754717190762 0 0 0 133.52859900013692,23.84342311466594 L 133.466424784372,24.841488426603973 A 556.5754717190762 556.5754717190762 0 0 1 24.018736134675446,6.953439040707552 Z M 196.8241727289189,25.175088723221847 L 196.77251198219642,24.176424031121314 A 555.5754717190762 555.5754717190762 0 0 0 306.20552803334016,7.471960790603413 L 305.45962869033946,4.566167582181455 L 313.1100287434915,6.215827858338847 L 307.2000604906744,11.346351735166023 L 306.4541611476737,8.440558526744065 A 556.5754717190762 556.5754717190762 0 0 1 196.8241727289189,25.175088723221847"/><text text-anchor="middle" pointer-events="none" font-size="8px" fill="#000000" x="165.1431805529362" y="28.410580233721703" font-family="sans-serif">TRANSACTION</text></g><g class="relationship" transform="translate(-367.6602607134795 107.95146282284841) rotate(359.7313466997607)"><path class="outline" fill="#A5ABB6" stroke="none" d="M 17.324116139070416,18.03122292025696 L 18.031222920256962,17.324116139070412 A 212.18838416520646 212.18838416520646 0 0 0 133.56318448590963,76.64786920109759 L 133.40055596172184,77.63455656957885 A 213.18838416520646 213.18838416520646 0 0 1 17.324116139070416,18.03122292025696 Z M 196.6444647946937,78.54914756824647 L 196.51043593259556,77.55817013958088 A 212.18838416520646 212.18838416520646 0 0 0 313.7095271114312,21.600017494706925 L 311.6504352422144,19.418242833078125 L 319.14351663343456,17.159098910139313 L 316.45498293705356,24.509050376878662 L 314.39589106783677,22.32727571524986 A 213.18838416520646 213.18838416520646 0 0 1 196.6444647946937,78.54914756824647"/><text text-anchor="middle" pointer-events="none" font-size="8px" fill="#000000" x="164.99563303402093" y="82.95041869366759" font-family="sans-serif">TRANSACTION</text></g></g><g class="layer nodes"><g class="node" transform="translate(269.64476296665737,107.62138297919881)"><circle class="outline" cx="0" cy="0" r="25" fill="#FFC454" stroke="#d7a013" stroke-width="2px"/><text text-anchor="middle" pointer-events="none" font-family="sans-serif" dy="1.5625" font-size="25" fill="#2A2C34"/><text text-anchor="middle" pointer-events="none" x="0" y="5" font-size="10px" fill="#2A2C34" font-family="sans-serif"> 62.2625…</text></g><g class="node" transform="translate(-30.33899671223083,106.36979073946344)"><circle class="outline" cx="0" cy="0" r="25" fill="#4C8EDA" stroke="#2870c2" stroke-width="2px"/><text text-anchor="middle" pointer-events="none" font-family="sans-serif" dy="1.5625" font-size="25" fill="#FFFFFF"/><text text-anchor="middle" pointer-events="none" x="0" y="5" font-size="10px" fill="#FFFFFF" font-family="sans-serif"> 64.5894…</text></g><g class="node" transform="translate(-367.6602607134795,107.95146282284841)"><circle class="outline" cx="0" cy="0" r="25" fill="#FFC454" stroke="#d7a013" stroke-width="2px"/><text text-anchor="middle" pointer-events="none" font-family="sans-serif" dy="1.5625" font-size="25" fill="#2A2C34"/><text text-anchor="middle" pointer-events="none" x="0" y="5" font-size="10px" fill="#2A2C34" font-family="sans-serif"> 46.5707…</text></g></g></svg>